<?xml version="1.0" standalone="no"?>
<!DOCTYPE svg PUBLIC "-//W3C//DTD SVG 20010904//EN"
 "http://www.w3.org/TR/2001/REC-SVG-20010904/DTD/svg10.dtd">
<svg version="1.0" xmlns="http://www.w3.org/2000/svg"
 width="260.000000pt" height="260.000000pt" viewBox="0 0 260.000000 260.000000"
 preserveAspectRatio="xMidYMid meet">
<metadata>
Created by potrace 1.14, written by Peter Selinger 2001-2017
</metadata>
<g transform="translate(0.000000,260.000000) scale(0.100000,-0.100000)"
fill="#000000" stroke="none">
<path d="M238 2523 c-22 -3 -28 -10 -28 -29 0 -13 -4 -24 -10 -24 -5 0 -10
-13 -10 -29 0 -16 -5 -31 -11 -33 -6 -2 -13 -41 -16 -86 -3 -45 -10 -82 -14
-82 -5 0 -9 -22 -9 -50 0 -27 -4 -50 -9 -50 -4 0 -11 -37 -14 -81 -3 -45 -10
-85 -15 -88 -5 -3 -12 -60 -16 -126 -3 -66 -10 -181 -16 -255 -12 -170 -13
-570 -1 -570 4 0 11 -37 14 -82 4 -46 11 -84 17 -86 5 -2 10 -17 10 -33 0 -16
5 -29 10 -29 6 0 10 -9 10 -20 0 -15 7 -20 25 -20 14 0 25 -6 25 -14 0 -20 67
-26 299 -26 198 0 361 14 361 32 0 4 9 8 20 8 11 0 20 7 20 15 0 9 9 15 25 15
16 0 25 6 25 15 0 9 9 15 25 15 16 0 25 6 25 15 0 9 9 15 25 15 16 0 25 -6 25
-15 0 -8 -7 -15 -15 -15 -9 0 -15 -9 -15 -25 0 -16 -6 -25 -15 -25 -9 0 -15
-9 -15 -25 0 -16 -6 -25 -15 -25 -8 0 -15 -9 -15 -20 0 -15 -7 -20 -25 -20
-16 0 -25 -6 -25 -15 0 -8 -9 -15 -20 -15 -11 0 -20 -7 -20 -15 0 -8 -9 -15
-20 -15 -13 0 -20 -7 -20 -20 0 -13 -7 -20 -20 -20 -11 0 -20 -7 -20 -15 0 -8
-9 -15 -20 -15 -13 0 -20 -7 -20 -20 0 -15 -7 -20 -25 -20 -16 0 -25 -6 -25
-15 0 -9 -9 -15 -25 -15 -16 0 -25 -6 -25 -15 0 -8 -9 -15 -20 -15 -11 0 -20
-7 -20 -15 0 -9 -9 -15 -25 -15 -16 0 -25 -6 -25 -15 0 -9 -9 -15 -25 -15
l-25 0 0 -155 0 -155 155 0 c131 0 155 2 155 15 0 9 9 15 25 15 16 0 25 6 25
15 0 9 9 15 25 15 16 0 25 6 25 15 0 8 9 15 20 15 11 0 20 7 20 15 0 9 9 15
25 15 18 0 25 5 25 20 0 15 7 20 25 20 16 0 25 6 25 15 0 8 9 15 20 15 13 0
20 7 20 20 0 13 7 20 20 20 11 0 20 7 20 15 0 8 9 15 20 15 11 0 20 7 20 15 0
8 9 15 20 15 13 0 20 7 20 20 0 15 7 20 25 20 20 0 25 5 25 25 0 16 6 25 15
25 9 0 15 9 15 25 0 16 6 25 15 25 9 0 15 9 15 25 0 16 6 25 15 25 8 0 15 9
15 20 0 11 7 20 15 20 9 0 15 9 15 25 0 18 5 25 20 25 15 0 20 7 20 25 0 14 5
25 10 25 6 0 10 11 10 25 0 16 6 25 15 25 9 0 15 9 15 25 0 15 6 25 14 25 9 0
16 17 20 45 6 36 11 45 27 45 12 0 19 -7 19 -19 0 -25 40 -31 218 -31 135 0
142 1 142 20 0 11 5 20 10 20 6 0 10 -45 10 -115 0 -70 4 -115 10 -115 6 0 10
-25 10 -55 0 -41 4 -55 14 -55 9 0 16 -17 21 -50 4 -27 11 -50 16 -50 5 0 9
-13 9 -30 0 -16 5 -30 10 -30 6 0 10 -11 10 -25 0 -16 6 -25 15 -25 9 0 15 -9
15 -25 0 -14 5 -25 10 -25 6 0 10 -11 10 -25 0 -16 6 -25 15 -25 10 0 15 -10
15 -30 0 -20 5 -30 15 -30 8 0 15 -9 15 -20 0 -19 7 -20 155 -20 l155 0 0 155
c0 131 -2 155 -15 155 -8 0 -15 9 -15 20 0 11 -7 20 -15 20 -10 0 -15 10 -15
30 0 17 -4 30 -10 30 -5 0 -10 11 -10 25 0 16 -6 25 -15 25 -9 0 -15 9 -15 25
0 14 -4 25 -10 25 -5 0 -10 11 -10 25 0 14 -4 25 -9 25 -5 0 -12 25 -16 55 -4
38 -11 55 -21 55 -10 0 -14 14 -14 55 0 30 -4 55 -10 55 -6 0 -10 40 -10 100
0 60 4 100 10 100 6 0 10 11 10 25 0 16 6 25 15 25 9 0 15 9 15 25 0 16 6 25
15 25 9 0 15 9 15 25 0 16 6 25 15 25 9 0 15 9 15 25 0 14 5 25 10 25 6 0 10
11 10 25 0 14 5 25 10 25 6 0 10 14 10 30 0 17 5 30 10 30 6 0 10 77 10 210
l0 210 -25 0 c-14 0 -25 5 -25 10 0 6 -58 10 -155 10 l-155 0 0 -25 c0 -16 -6
-25 -15 -25 -8 0 -15 -9 -15 -19 0 -11 -5 -21 -11 -23 -7 -2 -13 -47 -17 -116
-2 -62 -8 -112 -13 -112 -4 0 -11 -25 -14 -55 -4 -30 -11 -55 -16 -55 -5 0 -9
-11 -9 -25 0 -14 -4 -25 -10 -25 -5 0 -10 -11 -10 -25 0 -16 -6 -25 -15 -25
-8 0 -15 -7 -15 -15 0 -9 -9 -15 -25 -15 -16 0 -25 -6 -25 -15 0 -9 -9 -15
-25 -15 -14 0 -25 -4 -25 -10 0 -5 -4 -10 -10 -10 -5 0 -10 11 -10 25 0 14 -4
25 -10 25 -5 0 -10 11 -10 25 0 15 -6 25 -14 25 -9 0 -16 17 -21 50 -4 28 -11
50 -16 50 -5 0 -9 25 -9 55 0 30 5 55 10 55 6 0 10 68 10 185 l0 185 -154 0
c-139 0 -155 -2 -160 -17 -2 -10 -11 -61 -20 -113 -57 -355 -60 -370 -73 -370
-7 0 -13 -11 -13 -25 0 -14 -4 -25 -10 -25 -5 0 -10 -11 -10 -25 0 -14 -6 -25
-13 -25 -9 0 -18 -27 -27 -85 -7 -47 -17 -85 -21 -85 -4 0 -10 -22 -14 -50 -5
-33 -12 -50 -21 -50 -8 0 -14 -10 -14 -25 0 -16 -6 -25 -15 -25 -8 0 -15 7
-15 15 0 8 4 15 9 15 5 0 12 24 16 53 4 28 11 54 15 57 4 3 14 46 23 96 13 68
17 151 17 323 0 127 -4 231 -9 231 -5 0 -12 25 -16 55 -3 30 -11 55 -16 55 -5
0 -9 11 -9 25 0 14 -4 25 -10 25 -5 0 -10 14 -10 30 0 17 -4 30 -10 30 -5 0
-10 11 -10 25 0 16 -6 25 -15 25 -9 0 -15 9 -15 25 0 16 -6 25 -15 25 -8 0
-15 9 -15 20 0 11 -7 20 -15 20 -9 0 -15 9 -15 25 0 16 -6 25 -15 25 -9 0 -15
9 -15 25 0 18 -5 25 -20 25 -13 0 -20 7 -20 20 0 11 -7 20 -15 20 -9 0 -15 9
-15 25 0 18 -5 25 -20 25 -13 0 -20 7 -20 20 0 13 -7 20 -20 20 -13 0 -20 7
-20 20 0 15 -7 20 -25 20 -16 0 -25 6 -25 15 0 8 -9 15 -20 15 -11 0 -20 5
-20 10 0 6 -33 10 -80 10 -64 0 -80 3 -80 15 0 8 -4 15 -10 15 -5 0 -10 7 -10
15 0 13 -23 15 -152 14 -84 -1 -165 -4 -180 -6z m292 -398 c0 -8 9 -15 20 -15
13 0 20 -7 20 -20 0 -13 7 -20 20 -20 13 0 20 -7 20 -20 0 -11 7 -20 15 -20 9
0 15 -9 15 -25 0 -18 5 -25 20 -25 13 0 20 -7 20 -20 0 -11 7 -20 15 -20 9 0
15 -9 15 -25 0 -16 6 -25 15 -25 9 0 15 -9 15 -25 0 -16 6 -25 15 -25 8 0 15
-9 15 -20 0 -11 7 -20 15 -20 9 0 15 -9 15 -25 0 -14 5 -25 10 -25 6 0 10 -11
10 -25 0 -14 5 -25 10 -25 6 0 10 -13 10 -30 0 -16 4 -30 8 -30 19 0 31 -117
19 -184 -6 -36 -14 -66 -18 -66 -4 0 -11 -25 -14 -55 -4 -30 -11 -55 -16 -55
-5 0 -9 -9 -9 -20 0 -11 -7 -20 -15 -20 -9 0 -15 -9 -15 -25 0 -16 -6 -25 -15
-25 -8 0 -15 -9 -15 -20 0 -11 -7 -20 -15 -20 -8 0 -15 -7 -15 -15 0 -9 -9
-15 -25 -15 -16 0 -25 -6 -25 -15 0 -9 -9 -15 -25 -15 -16 0 -25 -6 -25 -15 0
-9 -9 -15 -24 -15 -13 0 -26 -5 -28 -11 -2 -6 -32 -13 -66 -16 -53 -5 -62 -3
-62 11 0 9 -4 16 -10 16 -5 0 -10 9 -10 19 0 11 -4 21 -10 23 -20 6 -33 241
-21 367 6 66 11 146 11 179 0 33 4 62 10 64 5 2 13 38 16 81 4 42 11 77 15 77
5 0 9 27 9 60 0 33 4 60 10 60 6 0 10 20 10 44 0 78 10 106 36 106 15 0 24 -6
24 -15z m590 -1165 c0 -5 -4 -10 -10 -10 -5 0 -10 -11 -10 -25 0 -18 -5 -25
-20 -25 -11 0 -20 7 -20 15 0 8 7 15 15 15 8 0 15 9 15 20 0 11 7 20 15 20 8
0 15 -4 15 -10z m-60 -90 c0 -5 -7 -10 -15 -10 -8 0 -15 5 -15 10 0 6 7 10 15
10 8 0 15 -4 15 -10z"/>
</g>
</svg>
